<svg xmlns="http://www.w3.org/2000/svg" width="24" height="24" viewBox="0 0 24 24"><g stroke="#5190d9" fill="none" stroke-linejoin="round" stroke-miterlimit="10"><path d="M23.5 10.883c0 5.181-5.148 9.382-11.5 9.382-1.418 0-2.775-.209-4.029-.592l-6.608 3.076 2.588-5.166c-2.13-1.703-3.45-4.076-3.45-6.7C.5 5.7 5.648 1.5 12 1.5s11.5 4.2 11.5 9.383z"/><path d="M13 15.5a.5.5 0 1 1-1 0 .5.5 0 0 1 1 0z"/><path stroke-linecap="round" d="M9.5 8.5a3 3 0 1 1 3 3V13"/></g><path fill="none" d="M0 0h24v24H0z"/></svg>